<?xml version="1.0"?>
<svg xmlns="http://www.w3.org/2000/svg" xmlns:xlink="http://www.w3.org/1999/xlink" version="1.1" id="Capa_1" x="0px" y="0px" viewBox="0 0 512 512" style="enable-background:new 0 0 512 512;" xml:space="preserve" width="512px" height="512px" class=""><g><g>
	<g>
		<path d="M512,56.169c-0.003-6.063-2.371-11.76-6.664-16.039c-8.855-8.84-23.263-8.84-32.117-0.001l-39.362,39.293    c-2.932,2.926-2.936,7.675-0.01,10.607c2.926,2.93,7.675,2.937,10.606,0.009l39.363-39.292c3.011-3.007,7.91-3.006,10.927,0.005    c1.454,1.449,2.256,3.376,2.257,5.425c0,2.055-0.803,3.988-2.261,5.446L377.934,178.221l-10.911-10.888l54.613-54.517    c2.932-2.926,2.936-7.675,0.01-10.607c-2.926-2.93-7.675-2.937-10.606-0.009l-55.023,54.926c-2.727-1.151-5.995-0.62-8.218,1.599    l-24.574,24.542c-30.278-32.47-84.48-85.439-101.608-102.097c-3.383-3.29-9.194-3.805-13.229-1.172    c-3.573,2.331-4.985,6.55-3.514,10.496c3.303,8.865,3.007,20.495-0.877,34.566c-1.103,3.993,1.241,8.123,5.233,9.226    c3.992,1.102,8.123-1.241,9.226-5.234c2.651-9.603,3.87-18.442,3.655-26.446c22.406,21.91,62.852,61.803,88.144,88.751    c-24.783-1.551-54.835,8.506-89.645,30.029c-35.724,22.088-69.408,51.789-92.889,74.5l-11.163-11.143    c15.759-17.228,64.341-72.41,89.767-124.592c1.814-3.724,0.267-8.213-3.457-10.028c-3.723-1.815-8.213-0.268-10.027,3.457    c-28.664,58.826-90.291,124.241-92.09,126.142L33.184,347.17c-0.004,0.004-0.008,0.007-0.011,0.01l-5.094,5.086l-5.625,5.615    c-0.004,0.004-0.008,0.009-0.012,0.013l-8.209,8.196C5.058,375.245,0.002,387.488,0,400.564    C-0.002,413.923,5.233,426.508,14.743,436l27.84,27.792C52.399,473.59,65.26,478.5,78.055,478.5    c12.551-0.001,25.041-4.727,34.524-14.199l32.391-32.334c2.931-2.926,2.936-7.675,0.009-10.607    c-2.926-2.933-7.674-2.936-10.607-0.009l-32.391,32.335c-13.311,13.293-35.202,13.063-48.801-0.511l-27.84-27.791    c-6.669-6.658-10.342-15.471-10.34-24.817c0.001-9.064,3.492-17.537,9.831-23.86l2.924-2.92l10.904,10.885l-2.911,2.905    c-7.285,7.285-7.056,19.37,0.517,26.942l27.85,27.792c3.879,3.87,8.944,5.818,13.942,5.818c4.755,0,9.45-1.764,13.004-5.31    l136.206-135.971l10.903,10.884l-81.15,81.01c-2.931,2.926-2.936,7.675-0.009,10.607c1.465,1.468,3.386,2.201,5.308,2.201    c1.917,0,3.834-0.73,5.299-2.192l81.168-81.029l8.779,8.763c1.464,1.462,3.381,2.192,5.298,2.192s3.834-0.73,5.299-2.192    l13.298-13.275c3.617-3.61,5.608-8.411,5.608-13.519c0-3.776-1.094-7.379-3.122-10.463L386.529,197.41    c1.408-1.406,2.2-3.315,2.201-5.305c0-1.002-0.2-1.982-0.579-2.89l117.186-116.98C509.636,67.944,512.002,62.238,512,56.169z     M38.368,363.177l67.768-67.648l10.908,10.889c-0.019,0.018,0.035-0.036,0.017-0.017c-0.017,0.017,0,0-0.017,0.017l-67.77,67.646    L38.368,363.177z M80.461,432.189c-1.421,1.415-4.056,1.183-5.754-0.51l-27.844-27.784c-1.689-1.69-1.923-4.312-0.517-5.718    l8.197-8.179c0.01-0.01,0.021-0.018,0.031-0.028l3.259-3.253l34.091,34.03L80.461,432.189z M102.539,410.15l-34.091-34.03    l33.124-33.064l34.091,34.03L102.539,410.15z M207.893,287.501l8.758,8.742l-70.374,70.246l-34.09-34.029    c0.001-0.001,20.738-20.701,20.739-20.702c22.994-22.67,58.239-54.539,95.571-77.62c27.787-17.18,51.762-26.47,71.621-27.802    l-54.896,54.82c-7.418-4.871-17.512-4.052-24.032,2.455l-13.298,13.274c-1.409,1.406-2.201,3.316-2.201,5.308    S206.483,286.094,207.893,287.501z M270.861,313.193l-7.999,7.985l-39.055-38.985l7.98-7.966c1.615-1.613,4.241-1.612,5.856-0.001    l33.218,33.159c0.778,0.776,1.206,1.808,1.206,2.904C272.067,311.385,271.638,312.416,270.861,313.193z M273.616,288.942    l-17.5-17.468l63.621-63.533c0.858,0.221,1.708,0.457,2.545,0.719c3.812,1.194,7.846-0.285,10.036-3.686    c1.953-3.032,2.131-7.037,0.681-10.275l20.103-20.076l17.513,17.473L273.616,288.942z" data-original="#000000" class="active-path" data-old_color="#000000" fill="#FFFFFF"/>
	</g>
</g></g> </svg>
